<svg width="275" height="92" viewBox="0 0 275 92" fill="none" xmlns="http://www.w3.org/2000/svg">
<path fill-rule="evenodd" clip-rule="evenodd" d="M155.405 45.6043H118.47V33.9545C118.493 33.9613 118.519 33.9657 118.549 33.9657H155.286C159.72 34.0716 161.937 36.0378 161.937 39.8643C161.937 43.6912 159.759 45.6043 155.405 45.6043ZM118.47 22.8021C112.305 22.8021 107.307 27.7266 107.307 33.8919V56.5699C107.307 56.7023 107.372 56.7679 107.505 56.7679L154.772 56.9262C160.023 56.8203 163.876 56.1877 166.331 55.0259C168.785 53.8653 170.593 52.1895 171.754 49.9985C172.915 47.8084 173.443 44.9448 173.338 41.408C173.443 35.4439 172.005 31.406 169.023 29.2943C171.899 27.1567 173.285 22.9604 173.18 16.7059C173.148 12.4999 172.645 9.23068 171.259 7.10586C169.874 4.98168 168.112 3.2659 165.975 1.95947C163.837 0.653369 160.129 0 154.851 0H108.78H107.505H51.9243C49.549 0 47.0811 0.686633 44.5216 2.05862C39.507 5.54231 37 10.8604 37 18.0123V19.2791C37 23.0794 38.6755 26.6293 42.0274 29.9278C44.8779 32.6465 48.691 34.0054 53.4683 34.0054L87.6317 34.0447C90.6664 34.0447 92.1842 36.0637 92.1842 40.1016C92.1576 43.7705 90.5477 45.6043 87.3547 45.6043H42.5522L37.198 56.5456V56.5699C37.198 56.6793 37.2865 56.7679 37.3959 56.7679H85.5734C90.2445 56.7679 93.774 56.0096 96.1629 54.4918C98.551 52.9743 100.345 51.1008 101.547 48.8702C102.747 46.6405 103.348 43.8495 103.348 40.4975V39.8247C103.348 36.8693 102.609 34.0121 101.131 31.2541C99.6524 28.4967 97.8384 26.4243 95.6877 25.0389C93.5363 23.6535 90.0725 22.9211 85.2961 22.8418H52.3202C49.549 22.8418 48.1636 20.8759 48.1636 16.9432C48.2161 13.0905 49.5353 11.1636 52.1222 11.1636H107.307V11.1866H118.47V11.1636H155.524C159.693 11.2167 161.771 13.1698 161.759 17.0225C161.745 20.8759 159.667 22.8021 155.524 22.8021H118.549" fill="black"/>
<path fill-rule="evenodd" clip-rule="evenodd" d="M186.058 55.2184C185.822 55.8106 185.293 56.9262 184.35 56.9262H154.837L173.054 45.2563C173.054 45.2563 173.054 45.541 173.623 45.541C174.225 45.5404 174.942 45.5392 175.9 45.541C176.278 45.5417 176.357 45.4974 176.418 45.3571C186.062 23.14 178.3 41.022 186.062 23.14C186.162 22.9098 186.147 22.7705 186.431 22.7705C191.287 22.7708 198.864 22.7705 198.864 22.7705C198.864 22.7705 205.328 22.7707 209.47 22.7705C209.771 22.7705 209.898 22.5365 209.844 22.3966C207.973 17.5834 205.053 10.0716 205.053 10.0716C204.947 9.79785 204.805 9.67747 204.659 9.67747H204.423H204.186C204.186 9.67747 194.97 9.67745 192.055 9.67747C191.979 9.67747 191.934 9.61191 191.951 9.57304C192.898 7.39072 194.376 3.98487 194.376 3.98487C195.466 1.47348 197.406 -0.000303001 200.144 3.87383e-05C201.323 0.0001859 202.835 0.000130358 204.47 7.03299e-05C205.922 1.69277e-05 207.471 -3.98795e-05 208.968 3.87383e-05C211.733 0.000183989 213.712 1.45153 214.822 3.98487L231.241 41.4879L238 56.9262H224.857C224.002 56.9262 223.337 55.6737 223.149 55.2184C218.725 44.5536 214.443 34.1557 214.443 34.1557H194.436C194.436 34.1557 190.297 44.5536 186.058 55.2184Z" fill="black"/>
<path d="M37.8978 88H36.0512L41.3921 73.4545H43.2103L48.5512 88H46.7046L42.358 75.7557H42.2444L37.8978 88ZM38.5796 82.3182H46.0228V83.8807H38.5796V82.3182ZM79.4378 78H77.6764C77.5722 77.4934 77.39 77.0483 77.1295 76.6648C76.8739 76.2812 76.5614 75.9593 76.192 75.6989C75.8275 75.4337 75.4226 75.2348 74.9776 75.1023C74.5325 74.9697 74.0685 74.9034 73.5855 74.9034C72.7048 74.9034 71.907 75.1259 71.192 75.571C70.4818 76.0161 69.916 76.6719 69.4946 77.5384C69.0779 78.4048 68.8696 79.4678 68.8696 80.7273C68.8696 81.9867 69.0779 83.0497 69.4946 83.9162C69.916 84.7827 70.4818 85.4384 71.192 85.8835C71.907 86.3286 72.7048 86.5511 73.5855 86.5511C74.0685 86.5511 74.5325 86.4848 74.9776 86.3523C75.4226 86.2197 75.8275 86.0232 76.192 85.7628C76.5614 85.4976 76.8739 85.1733 77.1295 84.7898C77.39 84.4015 77.5722 83.9564 77.6764 83.4545H79.4378C79.3052 84.1979 79.0637 84.8632 78.7133 85.4503C78.363 86.0374 77.9274 86.5369 77.4065 86.9489C76.8857 87.3561 76.3009 87.6662 75.6523 87.8793C75.0083 88.0923 74.3194 88.1989 73.5855 88.1989C72.345 88.1989 71.2418 87.8958 70.2758 87.2898C69.3099 86.6837 68.55 85.822 67.996 84.7045C67.442 83.5871 67.1651 82.2614 67.1651 80.7273C67.1651 79.1932 67.442 77.8674 67.996 76.75C68.55 75.6326 69.3099 74.7708 70.2758 74.1648C71.2418 73.5587 72.345 73.2557 73.5855 73.2557C74.3194 73.2557 75.0083 73.3622 75.6523 73.5753C76.3009 73.7884 76.8857 74.1009 77.4065 74.5128C77.9274 74.92 78.363 75.4171 78.7133 76.0043C79.0637 76.5866 79.3052 77.2519 79.4378 78ZM100.481 88H98.634L103.975 73.4545H105.793L111.134 88H109.287L104.941 75.7557H104.827L100.481 88ZM101.162 82.3182H108.606V83.8807H101.162V82.3182ZM135.488 88H131V73.4545H135.687C137.098 73.4545 138.306 73.7457 139.309 74.3281C140.313 74.9058 141.083 75.7367 141.618 76.821C142.153 77.9006 142.42 79.1932 142.42 80.6989C142.42 82.214 142.15 83.5185 141.61 84.6122C141.071 85.7012 140.285 86.5393 139.252 87.1264C138.22 87.7088 136.966 88 135.488 88ZM132.761 86.4375H135.375C136.577 86.4375 137.574 86.2055 138.365 85.7415C139.155 85.2775 139.745 84.617 140.133 83.7599C140.521 82.9029 140.716 81.8826 140.716 80.6989C140.716 79.5246 140.524 78.5137 140.14 77.6662C139.757 76.8139 139.184 76.1605 138.422 75.706C137.659 75.2467 136.71 75.017 135.574 75.017H132.761V86.4375ZM162.975 88V73.4545H171.753V75.017H164.736V79.9318H171.299V81.4943H164.736V86.4375H171.867V88H162.975ZM192.528 73.4545H194.63L199.573 85.5284H199.744L204.687 73.4545H206.789V88H205.141V76.9489H204.999L200.454 88H198.863L194.318 76.9489H194.175V88H192.528V73.4545ZM226.671 73.4545H228.688L232.722 80.2443H232.892L236.926 73.4545H238.943L233.688 82.0057V88H231.926V82.0057L226.671 73.4545Z" fill="black"/>
</svg>
