<svg width="17" height="17" viewBox="0 0 17 17" fill="none" xmlns="http://www.w3.org/2000/svg">
<g id="i">
<circle id="Ellipse 276" cx="8.13403" cy="8.13403" r="7.63403" stroke="white"/>
<path id="i_2" d="M7.29088 11.7618V6.76051H8.74106V11.7618H7.29088ZM8.01597 6.06331C7.74949 6.06331 7.53258 5.98584 7.36525 5.83091C7.19792 5.67598 7.11426 5.48386 7.11426 5.25456C7.11426 5.02525 7.19792 4.83314 7.36525 4.6782C7.53258 4.52327 7.74949 4.4458 8.01597 4.4458C8.28246 4.4458 8.49937 4.52017 8.6667 4.66891C8.83402 4.81145 8.91769 4.99737 8.91769 5.22667C8.91769 5.46837 8.83402 5.66978 8.6667 5.83091C8.50556 5.98584 8.28866 6.06331 8.01597 6.06331Z" fill="white"/>
</g>
</svg>
