<svg width="250" height="250" viewBox="0 0 150 150" fill="none" xmlns="http://www.w3.org/2000/svg">
<rect width="150" height="150" rx="2" fill="#404040"/>
<path d="M75.7515 79.8748C75.314 79.8123 74.7515 79.8123 74.2515 79.8748C63.2515 79.4998 54.5015 70.4998 54.5015 59.4373C54.5015 48.1248 63.6265 38.9373 75.0015 38.9373C86.314 38.9373 95.5015 48.1248 95.5015 59.4373C95.439 70.4998 86.7515 79.4998 75.7515 79.8748Z" stroke="#B7B7B7" stroke-width="4" stroke-linecap="round" stroke-linejoin="round"/>
<path d="M117.124 121.125C105.999 131.313 91.249 137.5 74.999 137.5C58.749 137.5 43.999 131.313 32.874 121.125C33.499 115.25 37.249 109.5 43.9365 105C61.0615 93.6252 89.0615 93.6252 106.062 105C112.749 109.5 116.499 115.25 117.124 121.125Z" stroke="#B7B7B7" stroke-width="4" stroke-linecap="round" stroke-linejoin="round"/>
<path d="M75 137.5C109.518 137.5 137.5 109.518 137.5 75C137.5 40.4822 109.518 12.5 75 12.5C40.4822 12.5 12.5 40.4822 12.5 75C12.5 109.518 40.4822 137.5 75 137.5Z" stroke="#B7B7B7" stroke-width="4" stroke-linecap="round" stroke-linejoin="round"/>
</svg>
