<svg width="30" height="30" viewBox="0 0 30 30" fill="none" xmlns="http://www.w3.org/2000/svg">
<path d="M22.6752 27.0244C21.5752 27.3494 20.2752 27.4995 18.7502 27.4995H11.2502C9.72519 27.4995 8.4252 27.3494 7.3252 27.0244C7.6002 23.7744 10.9377 21.2119 15.0002 21.2119C19.0627 21.2119 22.4002 23.7744 22.6752 27.0244Z" stroke="white" stroke-width="2" stroke-linecap="round" stroke-linejoin="round"/>
<path d="M18.75 2.5H11.25C5 2.5 2.5 5 2.5 11.25V18.75C2.5 23.475 3.925 26.0625 7.325 27.025C7.6 23.775 10.9375 21.2125 15 21.2125C19.0625 21.2125 22.4 23.775 22.675 27.025C26.075 26.0625 27.5 23.475 27.5 18.75V11.25C27.5 5 25 2.5 18.75 2.5ZM15 17.7125C12.525 17.7125 10.525 15.7 10.525 13.225C10.525 10.75 12.525 8.75 15 8.75C17.475 8.75 19.475 10.75 19.475 13.225C19.475 15.7 17.475 17.7125 15 17.7125Z" stroke="white" stroke-width="2" stroke-linecap="round" stroke-linejoin="round"/>
<path d="M19.4754 13.225C19.4754 15.7 17.4754 17.7125 15.0004 17.7125C12.5254 17.7125 10.5254 15.7 10.5254 13.225C10.5254 10.75 12.5254 8.75 15.0004 8.75C17.4754 8.75 19.4754 10.75 19.4754 13.225Z" stroke="white" stroke-width="2" stroke-linecap="round" stroke-linejoin="round"/>
</svg>
