<svg width="66" height="19" viewBox="0 0 66 19" fill="none" xmlns="http://www.w3.org/2000/svg">
<path fill-rule="evenodd" clip-rule="evenodd" d="M38.8142 14.9495H26.7067V11.1306C26.7143 11.1328 26.7227 11.1343 26.7326 11.1343H38.7753C40.2287 11.169 40.9554 11.8135 40.9554 13.0679C40.9554 14.3224 40.2417 14.9495 38.8142 14.9495ZM26.7067 7.47475C24.6856 7.47475 23.0472 9.08903 23.0472 11.1101V18.5441C23.0472 18.5875 23.0686 18.609 23.1121 18.609L38.6066 18.6609C40.3279 18.6262 41.5912 18.4189 42.3959 18.038C43.2005 17.6575 43.7929 17.1082 44.1737 16.39C44.5543 15.672 44.7272 14.7333 44.6928 13.5739C44.7272 11.6188 44.2558 10.2952 43.2783 9.60294C44.2211 8.90221 44.6753 7.52665 44.6409 5.47635C44.6305 4.09759 44.4656 3.0259 44.0115 2.32937C43.5573 1.63304 42.9798 1.07059 42.2791 0.642333C41.5783 0.21418 40.3628 0 38.6326 0H23.5302H23.1121H4.89231C4.11369 0 3.30466 0.225085 2.46565 0.674834C0.821814 1.81682 0 3.56015 0 5.90461V6.31987C0 7.56564 0.549239 8.72933 1.64803 9.81062C2.58244 10.7018 3.83241 11.1473 5.39846 11.1473L16.5975 11.1602C17.5923 11.1602 18.0899 11.822 18.0899 13.1457C18.0812 14.3484 17.5534 14.9495 16.5067 14.9495H1.82007L0.0648935 18.5362V18.5441C0.0648935 18.58 0.0939336 18.609 0.129788 18.609H15.9228C17.4541 18.609 18.611 18.3605 19.3942 17.8629C20.177 17.3655 20.7652 16.7513 21.159 16.0201C21.5525 15.2892 21.7495 14.3743 21.7495 13.2755V13.0549C21.7495 12.0861 21.5071 11.1495 21.0227 10.2454C20.538 9.34147 19.9434 8.66213 19.2384 8.20798C18.5331 7.75383 17.3976 7.51375 15.8319 7.48775H5.0221C4.11369 7.48775 3.65953 6.84332 3.65953 5.55414C3.67673 4.29118 4.10918 3.65953 4.9572 3.65953H23.0472V3.66708H26.7067V3.65953H38.8531C40.22 3.67694 40.9012 4.31717 40.897 5.58014C40.8925 6.84332 40.2113 7.47475 38.8531 7.47475H26.7326" fill="white"/>
<path fill-rule="evenodd" clip-rule="evenodd" d="M48.8625 18.1011C48.7853 18.2952 48.6117 18.6609 48.3027 18.6609H38.6281L44.5996 14.8354C44.5996 14.8354 44.5996 14.9287 44.7862 14.9287C44.9836 14.9286 45.2186 14.9282 45.5327 14.9287C45.6566 14.929 45.6826 14.9145 45.7025 14.8685C48.8638 7.58551 46.3194 13.4474 48.8638 7.58551C48.8966 7.51003 48.8916 7.46437 48.9849 7.46438C50.5766 7.46448 53.0606 7.46438 53.0606 7.46438C53.0606 7.46438 55.1796 7.46446 56.5373 7.46438C56.6359 7.46437 56.6777 7.38768 56.6599 7.3418C56.0466 5.76399 55.0895 3.30155 55.0895 3.30155C55.0546 3.21183 55.0082 3.17236 54.9603 3.17236H54.8827H54.8051C54.8051 3.17236 51.7841 3.17236 50.8285 3.17236C50.8036 3.17236 50.7887 3.15087 50.7942 3.13813C51.1048 2.42275 51.5894 1.30628 51.5894 1.30628C51.9467 0.483021 52.5827 -9.93267e-05 53.4801 1.26988e-05C53.8666 6.09398e-05 54.3624 4.27324e-05 54.8982 2.30548e-05C55.3742 5.54904e-06 55.8819 -1.30729e-05 56.3726 1.26988e-05C57.2791 6.03134e-05 57.928 0.475823 58.2916 1.30628L63.674 13.6001L65.8897 18.6609H61.5812C61.3011 18.6609 61.0831 18.2504 61.0212 18.1011C59.571 14.6051 58.1673 11.1966 58.1673 11.1966H51.6091C51.6091 11.1966 50.2523 14.6051 48.8625 18.1011Z" fill="white"/>
</svg>
