<svg width="24" height="20" viewBox="0 0 24 20" fill="none" xmlns="http://www.w3.org/2000/svg">
<path d="M2.32376 8.82648C2.32376 8.82648 12.3238 4.72248 15.7919 3.27736C17.1214 2.69936 21.6301 0.849603 21.6301 0.849603C21.6301 0.849603 23.711 0.0404029 23.5376 2.00568C23.4798 2.81496 23.0174 5.64728 22.555 8.71088C21.8613 13.0462 21.1098 17.786 21.1098 17.786C21.1098 17.786 20.9942 19.1155 20.0116 19.3467C19.029 19.5779 17.4104 18.5375 17.1214 18.3062C16.8902 18.1329 12.7862 15.5317 11.2833 14.26C10.8786 13.9132 10.4162 13.2196 11.341 12.4103C13.422 10.5028 15.9075 8.13288 17.4104 6.63C18.1041 5.93632 18.7977 4.31784 15.9075 6.28312C11.8035 9.11552 7.75728 11.7745 7.75728 11.7745C7.75728 11.7745 6.8324 12.3525 5.09832 11.8322C3.36416 11.3121 1.34104 10.6184 1.34104 10.6184C1.34104 10.6184 -0.0461598 9.75136 2.32376 8.82648Z" fill="white"/>
</svg>
